<mxfile host="app.diagrams.net" agent="Mozilla/5.0 (Windows NT 10.0; Win64; x64) AppleWebKit/537.36 (KHTML, like Gecko) Chrome/129.0.0.0 Safari/537.36" version="24.7.17">
  <diagram name="Página-1" id="wL-fX_2To0kq5ooPiDLL">
    <mxGraphModel dx="1434" dy="841" grid="1" gridSize="10" guides="1" tooltips="1" connect="1" arrows="1" fold="1" page="1" pageScale="1" pageWidth="827" pageHeight="1169" math="0" shadow="0">
      <root>
        <mxCell id="0" />
        <mxCell id="1" parent="0" />
        <mxCell id="XNatRsqHNbl5h2uv4FVS-34" value="" style="rounded=0;whiteSpace=wrap;html=1;fillColor=#fff2cc;gradientColor=#ffd966;strokeColor=#d6b656;" vertex="1" parent="1">
          <mxGeometry x="150" y="110" width="560" height="450" as="geometry" />
        </mxCell>
        <mxCell id="XNatRsqHNbl5h2uv4FVS-1" value="&lt;font style=&quot;font-size: 18px;&quot;&gt;DIAGRAMA CASO DE USO&lt;/font&gt;&lt;div style=&quot;font-size: 18px;&quot;&gt;&lt;font style=&quot;font-size: 18px;&quot;&gt;SISTEMA PÁTIO DE AUTOMÓVEIS&lt;/font&gt;&lt;/div&gt;" style="rounded=1;whiteSpace=wrap;html=1;fillColor=#ffcd28;gradientColor=#ffa500;strokeColor=#d79b00;" vertex="1" parent="1">
          <mxGeometry x="200" y="140" width="460" height="60" as="geometry" />
        </mxCell>
        <mxCell id="XNatRsqHNbl5h2uv4FVS-17" style="edgeStyle=orthogonalEdgeStyle;rounded=0;orthogonalLoop=1;jettySize=auto;html=1;exitX=0.5;exitY=0.5;exitDx=0;exitDy=0;exitPerimeter=0;" edge="1" parent="1" source="XNatRsqHNbl5h2uv4FVS-2" target="XNatRsqHNbl5h2uv4FVS-15">
          <mxGeometry relative="1" as="geometry" />
        </mxCell>
        <mxCell id="XNatRsqHNbl5h2uv4FVS-2" value="Vendedor" style="shape=umlActor;verticalLabelPosition=bottom;verticalAlign=top;html=1;outlineConnect=0;fillColor=#f5f5f5;gradientColor=#b3b3b3;strokeColor=#666666;" vertex="1" parent="1">
          <mxGeometry x="239" y="355" width="40" height="70" as="geometry" />
        </mxCell>
        <mxCell id="XNatRsqHNbl5h2uv4FVS-15" value="Vender&lt;div&gt;automóvel&lt;/div&gt;" style="ellipse;whiteSpace=wrap;html=1;fillColor=#d5e8d4;gradientColor=#97d077;strokeColor=#82b366;" vertex="1" parent="1">
          <mxGeometry x="359" y="365" width="80" height="50" as="geometry" />
        </mxCell>
        <mxCell id="XNatRsqHNbl5h2uv4FVS-18" value="Escolhe uma&lt;div&gt;alocação&lt;/div&gt;&lt;div&gt;ativa&lt;/div&gt;" style="ellipse;whiteSpace=wrap;html=1;fillColor=#dae8fc;gradientColor=#7ea6e0;strokeColor=#6c8ebf;" vertex="1" parent="1">
          <mxGeometry x="519" y="270" width="110" height="70" as="geometry" />
        </mxCell>
        <mxCell id="XNatRsqHNbl5h2uv4FVS-19" value="Escolhe&lt;div&gt;automóvel&lt;/div&gt;" style="ellipse;whiteSpace=wrap;html=1;fillColor=#dae8fc;gradientColor=#7ea6e0;strokeColor=#6c8ebf;" vertex="1" parent="1">
          <mxGeometry x="559" y="360" width="90" height="60" as="geometry" />
        </mxCell>
        <mxCell id="XNatRsqHNbl5h2uv4FVS-20" value="Escolhe&lt;div&gt;Cliente e&lt;/div&gt;&lt;div&gt;Concessionária&lt;/div&gt;" style="ellipse;whiteSpace=wrap;html=1;fillColor=#dae8fc;gradientColor=#7ea6e0;strokeColor=#6c8ebf;" vertex="1" parent="1">
          <mxGeometry x="529" y="440" width="110" height="70" as="geometry" />
        </mxCell>
        <mxCell id="XNatRsqHNbl5h2uv4FVS-28" value="" style="endArrow=block;dashed=1;endFill=0;endSize=12;html=1;rounded=0;exitX=1;exitY=0;exitDx=0;exitDy=0;entryX=0;entryY=1;entryDx=0;entryDy=0;" edge="1" parent="1" source="XNatRsqHNbl5h2uv4FVS-15" target="XNatRsqHNbl5h2uv4FVS-18">
          <mxGeometry width="160" relative="1" as="geometry">
            <mxPoint x="443" y="350" as="sourcePoint" />
            <mxPoint x="603" y="350" as="targetPoint" />
          </mxGeometry>
        </mxCell>
        <mxCell id="XNatRsqHNbl5h2uv4FVS-29" value="" style="endArrow=block;dashed=1;endFill=0;endSize=12;html=1;rounded=0;exitX=1;exitY=0.5;exitDx=0;exitDy=0;entryX=0;entryY=0.5;entryDx=0;entryDy=0;" edge="1" parent="1" source="XNatRsqHNbl5h2uv4FVS-15" target="XNatRsqHNbl5h2uv4FVS-19">
          <mxGeometry width="160" relative="1" as="geometry">
            <mxPoint x="458" y="376" as="sourcePoint" />
            <mxPoint x="545" y="340" as="targetPoint" />
          </mxGeometry>
        </mxCell>
        <mxCell id="XNatRsqHNbl5h2uv4FVS-30" value="" style="endArrow=block;dashed=1;endFill=0;endSize=12;html=1;rounded=0;exitX=1;exitY=1;exitDx=0;exitDy=0;entryX=0.027;entryY=0.257;entryDx=0;entryDy=0;entryPerimeter=0;" edge="1" parent="1" source="XNatRsqHNbl5h2uv4FVS-15" target="XNatRsqHNbl5h2uv4FVS-20">
          <mxGeometry width="160" relative="1" as="geometry">
            <mxPoint x="449" y="440" as="sourcePoint" />
            <mxPoint x="529" y="450" as="targetPoint" />
          </mxGeometry>
        </mxCell>
      </root>
    </mxGraphModel>
  </diagram>
</mxfile>
